<?xml version="1.0" standalone="no"?>
<!DOCTYPE svg PUBLIC "-//W3C//DTD SVG 20010904//EN"
 "http://www.w3.org/TR/2001/REC-SVG-20010904/DTD/svg10.dtd">
<svg version="1.0" xmlns="http://www.w3.org/2000/svg"
 width="1200.000000pt" height="1200.000000pt" viewBox="0 0 1200.000000 1200.000000"
 preserveAspectRatio="xMidYMid meet">
<metadata>
Created by potrace 1.14, written by Peter Selinger 2001-2017
</metadata>
<g transform="translate(0.000000,1200.000000) scale(0.100000,-0.100000)"
fill="#000000" stroke="none">
<path d="M5718 11995 c-1 -1 -55 -6 -118 -9 -63 -3 -126 -8 -140 -10 -14 -3
-55 -7 -93 -10 -37 -3 -77 -8 -90 -10 -12 -3 -47 -7 -77 -10 -50 -5 -255 -38
-306 -50 -12 -2 -38 -7 -58 -10 -31 -5 -71 -14 -151 -32 -11 -3 -31 -7 -45
-10 -72 -14 -314 -81 -452 -125 -468 -148 -911 -352 -1353 -622 -131 -80 -445
-299 -531 -371 -10 -8 -60 -48 -109 -88 -155 -125 -250 -212 -455 -418 -164
-165 -245 -252 -336 -365 -27 -33 -54 -64 -60 -70 -7 -5 -62 -77 -124 -160
-61 -82 -117 -157 -123 -165 -43 -54 -212 -320 -292 -458 -174 -301 -325 -627
-459 -992 -33 -92 -129 -400 -140 -450 -3 -14 -21 -88 -40 -165 -32 -128 -61
-265 -72 -340 -3 -16 -9 -52 -14 -80 -5 -27 -12 -68 -15 -90 -2 -22 -9 -71
-14 -110 -5 -38 -13 -101 -17 -140 -3 -38 -8 -78 -10 -87 -11 -60 -19 -293
-18 -543 0 -318 7 -469 30 -660 4 -27 8 -63 10 -80 4 -31 12 -96 20 -155 5
-36 8 -49 18 -110 3 -19 8 -46 10 -60 9 -54 47 -237 56 -270 5 -19 11 -46 14
-60 2 -14 12 -52 21 -85 9 -33 18 -67 20 -75 8 -37 28 -110 46 -165 11 -33 21
-69 23 -80 7 -34 85 -253 142 -397 95 -246 256 -582 369 -773 25 -42 45 -78
45 -80 0 -6 119 -194 193 -305 62 -93 254 -356 282 -386 5 -7 26 -31 45 -55
162 -200 501 -554 665 -694 39 -33 77 -67 85 -75 8 -8 38 -33 65 -55 75 -60
86 -69 99 -80 63 -58 462 -339 586 -412 357 -213 640 -354 964 -480 203 -79
505 -178 636 -208 8 -2 59 -15 112 -29 104 -27 349 -78 463 -97 79 -12 77 -12
160 -23 33 -4 74 -9 90 -12 31 -4 85 -10 176 -19 255 -26 931 -26 1089 -1 14
3 59 7 100 11 41 3 134 15 205 25 72 11 150 22 175 25 24 4 47 8 50 10 3 2 23
6 45 9 22 4 101 20 175 37 736 163 1417 454 2045 872 134 89 342 241 394 288
9 8 26 22 38 30 177 125 599 538 828 810 34 41 210 263 225 285 8 12 51 73 95
135 375 530 668 1145 851 1783 25 88 47 167 49 175 2 9 8 36 15 61 7 25 13 52
15 60 2 8 17 83 33 165 30 146 58 309 68 390 2 22 7 58 9 80 3 22 8 65 11 95
3 30 7 71 10 90 20 177 27 756 11 950 -12 143 -32 337 -42 399 -2 13 -7 45
-11 70 -8 65 -12 86 -28 181 -5 25 -22 112 -31 160 -3 14 -8 38 -11 54 -2 16
-7 32 -9 36 -2 4 -7 20 -9 36 -47 255 -207 735 -362 1087 -186 420 -480 916
-725 1221 -5 6 -34 43 -64 81 -84 105 -84 105 -144 175 -187 218 -519 544
-726 713 -11 9 -51 41 -90 72 -38 30 -75 59 -81 64 -139 111 -482 341 -624
418 -25 14 -49 28 -55 33 -33 26 -347 186 -495 252 -343 154 -586 241 -935
335 -132 35 -148 39 -199 49 -16 2 -32 7 -36 9 -6 4 -24 8 -95 21 -16 3 -61
11 -100 19 -59 12 -149 28 -230 40 -19 3 -163 21 -235 30 -19 2 -67 7 -105 10
-39 4 -90 9 -115 11 -51 6 -706 14 -712 9z"/>
</g>
</svg>
